<mxfile host="app.diagrams.net" modified="2020-09-10T18:47:04.588Z" agent="5.0 (Windows NT 10.0; Win64; x64) AppleWebKit/537.36 (KHTML, like Gecko) Chrome/85.0.4183.83 Safari/537.36 Edg/85.0.564.44" etag="qbVoSMGn9zUwQ4uXXZp0" version="13.6.6" type="github">
  <diagram name="Page-1" id="e7e014a7-5840-1c2e-5031-d8a46d1fe8dd">
    <mxGraphModel dx="652" dy="752" grid="1" gridSize="10" guides="1" tooltips="1" connect="1" arrows="1" fold="1" page="1" pageScale="1" pageWidth="1169" pageHeight="826" background="#ffffff" math="0" shadow="0">
      <root>
        <mxCell id="0" />
        <mxCell id="1" parent="0" />
        <mxCell id="LMWDhoOacNp9xWeNuHlK-41" value="IST 311 Course" style="whiteSpace=wrap;html=1;aspect=fixed;" vertex="1" parent="1">
          <mxGeometry x="110" y="80" width="80" height="80" as="geometry" />
        </mxCell>
        <mxCell id="LMWDhoOacNp9xWeNuHlK-54" style="edgeStyle=orthogonalEdgeStyle;rounded=0;orthogonalLoop=1;jettySize=auto;html=1;exitX=0;exitY=0.5;exitDx=0;exitDy=0;entryX=1;entryY=0.5;entryDx=0;entryDy=0;" edge="1" parent="1" source="LMWDhoOacNp9xWeNuHlK-42" target="LMWDhoOacNp9xWeNuHlK-41">
          <mxGeometry relative="1" as="geometry" />
        </mxCell>
        <mxCell id="LMWDhoOacNp9xWeNuHlK-55" value="5" style="edgeLabel;html=1;align=center;verticalAlign=middle;resizable=0;points=[];" vertex="1" connectable="0" parent="LMWDhoOacNp9xWeNuHlK-54">
          <mxGeometry x="-0.84" y="-1" relative="1" as="geometry">
            <mxPoint as="offset" />
          </mxGeometry>
        </mxCell>
        <mxCell id="LMWDhoOacNp9xWeNuHlK-56" value="Text" style="edgeLabel;html=1;align=center;verticalAlign=middle;resizable=0;points=[];" vertex="1" connectable="0" parent="LMWDhoOacNp9xWeNuHlK-54">
          <mxGeometry x="0.8" y="1" relative="1" as="geometry">
            <mxPoint as="offset" />
          </mxGeometry>
        </mxCell>
        <mxCell id="LMWDhoOacNp9xWeNuHlK-42" value="Quiz" style="whiteSpace=wrap;html=1;aspect=fixed;" vertex="1" parent="1">
          <mxGeometry x="340" y="80" width="80" height="80" as="geometry" />
        </mxCell>
        <mxCell id="LMWDhoOacNp9xWeNuHlK-57" style="edgeStyle=orthogonalEdgeStyle;rounded=0;orthogonalLoop=1;jettySize=auto;html=1;exitX=0.5;exitY=0;exitDx=0;exitDy=0;entryX=0.5;entryY=1;entryDx=0;entryDy=0;" edge="1" parent="1" source="LMWDhoOacNp9xWeNuHlK-43" target="LMWDhoOacNp9xWeNuHlK-42">
          <mxGeometry relative="1" as="geometry">
            <Array as="points">
              <mxPoint x="380" y="240" />
            </Array>
          </mxGeometry>
        </mxCell>
        <mxCell id="LMWDhoOacNp9xWeNuHlK-58" value="10" style="edgeLabel;html=1;align=center;verticalAlign=middle;resizable=0;points=[];" vertex="1" connectable="0" parent="LMWDhoOacNp9xWeNuHlK-57">
          <mxGeometry x="-0.4222" relative="1" as="geometry">
            <mxPoint as="offset" />
          </mxGeometry>
        </mxCell>
        <mxCell id="LMWDhoOacNp9xWeNuHlK-43" value="Questions" style="whiteSpace=wrap;html=1;aspect=fixed;" vertex="1" parent="1">
          <mxGeometry x="330" y="240" width="80" height="80" as="geometry" />
        </mxCell>
        <mxCell id="LMWDhoOacNp9xWeNuHlK-44" value="Students" style="whiteSpace=wrap;html=1;aspect=fixed;" vertex="1" parent="1">
          <mxGeometry x="180" y="290" width="80" height="80" as="geometry" />
        </mxCell>
        <mxCell id="LMWDhoOacNp9xWeNuHlK-46" value="iPhone" style="whiteSpace=wrap;html=1;aspect=fixed;" vertex="1" parent="1">
          <mxGeometry x="190" y="690" width="80" height="80" as="geometry" />
        </mxCell>
        <mxCell id="LMWDhoOacNp9xWeNuHlK-47" value="iMac" style="whiteSpace=wrap;html=1;aspect=fixed;" vertex="1" parent="1">
          <mxGeometry x="90" y="600" width="80" height="80" as="geometry" />
        </mxCell>
        <mxCell id="LMWDhoOacNp9xWeNuHlK-48" value="iPad" style="whiteSpace=wrap;html=1;aspect=fixed;" vertex="1" parent="1">
          <mxGeometry x="280" y="590" width="80" height="80" as="geometry" />
        </mxCell>
        <mxCell id="LMWDhoOacNp9xWeNuHlK-60" style="edgeStyle=orthogonalEdgeStyle;rounded=0;orthogonalLoop=1;jettySize=auto;html=1;exitX=0.5;exitY=0;exitDx=0;exitDy=0;entryX=0.5;entryY=1;entryDx=0;entryDy=0;" edge="1" parent="1" source="LMWDhoOacNp9xWeNuHlK-45" target="LMWDhoOacNp9xWeNuHlK-44">
          <mxGeometry relative="1" as="geometry" />
        </mxCell>
        <mxCell id="LMWDhoOacNp9xWeNuHlK-61" value="*" style="edgeLabel;html=1;align=center;verticalAlign=middle;resizable=0;points=[];" vertex="1" connectable="0" parent="LMWDhoOacNp9xWeNuHlK-60">
          <mxGeometry x="-0.7636" y="1" relative="1" as="geometry">
            <mxPoint as="offset" />
          </mxGeometry>
        </mxCell>
        <mxCell id="LMWDhoOacNp9xWeNuHlK-62" value="1" style="edgeLabel;html=1;align=center;verticalAlign=middle;resizable=0;points=[];" vertex="1" connectable="0" parent="LMWDhoOacNp9xWeNuHlK-60">
          <mxGeometry x="0.7273" y="-1" relative="1" as="geometry">
            <mxPoint as="offset" />
          </mxGeometry>
        </mxCell>
        <mxCell id="LMWDhoOacNp9xWeNuHlK-45" value="Devices" style="whiteSpace=wrap;html=1;aspect=fixed;" vertex="1" parent="1">
          <mxGeometry x="180" y="480" width="80" height="80" as="geometry" />
        </mxCell>
        <mxCell id="LMWDhoOacNp9xWeNuHlK-50" value="Uber" style="whiteSpace=wrap;html=1;aspect=fixed;" vertex="1" parent="1">
          <mxGeometry x="600" y="430" width="80" height="80" as="geometry" />
        </mxCell>
        <mxCell id="LMWDhoOacNp9xWeNuHlK-51" value="Lyft" style="whiteSpace=wrap;html=1;aspect=fixed;" vertex="1" parent="1">
          <mxGeometry x="600" y="530" width="80" height="80" as="geometry" />
        </mxCell>
        <mxCell id="LMWDhoOacNp9xWeNuHlK-63" value="Ride Sharing Companies" style="whiteSpace=wrap;html=1;aspect=fixed;" vertex="1" parent="1">
          <mxGeometry x="400" y="470" width="80" height="80" as="geometry" />
        </mxCell>
        <mxCell id="LMWDhoOacNp9xWeNuHlK-69" value="Extends" style="endArrow=block;endSize=16;endFill=0;html=1;exitX=0;exitY=0.5;exitDx=0;exitDy=0;" edge="1" parent="1" source="LMWDhoOacNp9xWeNuHlK-50" target="LMWDhoOacNp9xWeNuHlK-63">
          <mxGeometry width="160" relative="1" as="geometry">
            <mxPoint x="550" y="510" as="sourcePoint" />
            <mxPoint x="710" y="510" as="targetPoint" />
          </mxGeometry>
        </mxCell>
        <mxCell id="LMWDhoOacNp9xWeNuHlK-71" value="Extends" style="endArrow=block;endSize=16;endFill=0;html=1;" edge="1" parent="1" source="LMWDhoOacNp9xWeNuHlK-51" target="LMWDhoOacNp9xWeNuHlK-63">
          <mxGeometry width="160" relative="1" as="geometry">
            <mxPoint x="500" y="570" as="sourcePoint" />
            <mxPoint x="660" y="570" as="targetPoint" />
          </mxGeometry>
        </mxCell>
        <mxCell id="LMWDhoOacNp9xWeNuHlK-76" value="Extends" style="endArrow=block;endSize=16;endFill=0;html=1;" edge="1" parent="1" target="LMWDhoOacNp9xWeNuHlK-45">
          <mxGeometry width="160" relative="1" as="geometry">
            <mxPoint x="130" y="639.5" as="sourcePoint" />
            <mxPoint x="290" y="639.5" as="targetPoint" />
          </mxGeometry>
        </mxCell>
        <mxCell id="LMWDhoOacNp9xWeNuHlK-77" value="Extends" style="endArrow=block;endSize=16;endFill=0;html=1;" edge="1" parent="1" target="LMWDhoOacNp9xWeNuHlK-45">
          <mxGeometry width="160" relative="1" as="geometry">
            <mxPoint x="230" y="710" as="sourcePoint" />
            <mxPoint x="390" y="710" as="targetPoint" />
          </mxGeometry>
        </mxCell>
        <mxCell id="LMWDhoOacNp9xWeNuHlK-78" value="Extends" style="endArrow=block;endSize=16;endFill=0;html=1;" edge="1" parent="1" target="LMWDhoOacNp9xWeNuHlK-45">
          <mxGeometry width="160" relative="1" as="geometry">
            <mxPoint x="330" y="630" as="sourcePoint" />
            <mxPoint x="490" y="630" as="targetPoint" />
          </mxGeometry>
        </mxCell>
        <mxCell id="LMWDhoOacNp9xWeNuHlK-79" value="Picture" style="html=1;" vertex="1" parent="1">
          <mxGeometry x="600" y="170" width="110" height="50" as="geometry" />
        </mxCell>
        <mxCell id="LMWDhoOacNp9xWeNuHlK-91" style="edgeStyle=orthogonalEdgeStyle;rounded=0;orthogonalLoop=1;jettySize=auto;html=1;" edge="1" parent="1" source="LMWDhoOacNp9xWeNuHlK-80">
          <mxGeometry relative="1" as="geometry">
            <mxPoint x="655" y="110" as="targetPoint" />
          </mxGeometry>
        </mxCell>
        <mxCell id="LMWDhoOacNp9xWeNuHlK-92" style="edgeStyle=orthogonalEdgeStyle;rounded=0;orthogonalLoop=1;jettySize=auto;html=1;exitX=0.5;exitY=1;exitDx=0;exitDy=0;entryX=0.5;entryY=0;entryDx=0;entryDy=0;" edge="1" parent="1" source="LMWDhoOacNp9xWeNuHlK-80" target="LMWDhoOacNp9xWeNuHlK-79">
          <mxGeometry relative="1" as="geometry" />
        </mxCell>
        <mxCell id="LMWDhoOacNp9xWeNuHlK-80" value="Frame" style="html=1;" vertex="1" parent="1">
          <mxGeometry x="600" y="60" width="110" height="50" as="geometry" />
        </mxCell>
        <mxCell id="LMWDhoOacNp9xWeNuHlK-86" style="edgeStyle=orthogonalEdgeStyle;rounded=0;orthogonalLoop=1;jettySize=auto;html=1;exitX=0.5;exitY=0;exitDx=0;exitDy=0;" edge="1" parent="1" source="LMWDhoOacNp9xWeNuHlK-81" target="LMWDhoOacNp9xWeNuHlK-82">
          <mxGeometry relative="1" as="geometry" />
        </mxCell>
        <mxCell id="LMWDhoOacNp9xWeNuHlK-87" value="1..*" style="edgeLabel;html=1;align=center;verticalAlign=middle;resizable=0;points=[];" vertex="1" connectable="0" parent="LMWDhoOacNp9xWeNuHlK-86">
          <mxGeometry x="0.76" y="-1" relative="1" as="geometry">
            <mxPoint as="offset" />
          </mxGeometry>
        </mxCell>
        <mxCell id="LMWDhoOacNp9xWeNuHlK-88" value="1..*t" style="edgeLabel;html=1;align=center;verticalAlign=middle;resizable=0;points=[];" vertex="1" connectable="0" parent="LMWDhoOacNp9xWeNuHlK-86">
          <mxGeometry x="-0.8533" y="-2" relative="1" as="geometry">
            <mxPoint as="offset" />
          </mxGeometry>
        </mxCell>
        <mxCell id="LMWDhoOacNp9xWeNuHlK-81" value="Tours" style="html=1;" vertex="1" parent="1">
          <mxGeometry x="1010" y="280" width="110" height="50" as="geometry" />
        </mxCell>
        <mxCell id="LMWDhoOacNp9xWeNuHlK-82" value="Trip" style="html=1;" vertex="1" parent="1">
          <mxGeometry x="1000" y="90" width="110" height="50" as="geometry" />
        </mxCell>
        <mxCell id="LMWDhoOacNp9xWeNuHlK-95" style="edgeStyle=orthogonalEdgeStyle;rounded=0;orthogonalLoop=1;jettySize=auto;html=1;exitX=0.5;exitY=1;exitDx=0;exitDy=0;entryX=-0.012;entryY=0.663;entryDx=0;entryDy=0;entryPerimeter=0;" edge="1" parent="1" source="LMWDhoOacNp9xWeNuHlK-93" target="LMWDhoOacNp9xWeNuHlK-44">
          <mxGeometry relative="1" as="geometry" />
        </mxCell>
        <mxCell id="LMWDhoOacNp9xWeNuHlK-96" value="1..5t" style="edgeLabel;html=1;align=center;verticalAlign=middle;resizable=0;points=[];" vertex="1" connectable="0" parent="LMWDhoOacNp9xWeNuHlK-95">
          <mxGeometry x="-0.6497" y="2" relative="1" as="geometry">
            <mxPoint as="offset" />
          </mxGeometry>
        </mxCell>
        <mxCell id="LMWDhoOacNp9xWeNuHlK-97" value="1" style="edgeLabel;html=1;align=center;verticalAlign=middle;resizable=0;points=[];" vertex="1" connectable="0" parent="LMWDhoOacNp9xWeNuHlK-95">
          <mxGeometry x="0.6929" relative="1" as="geometry">
            <mxPoint as="offset" />
          </mxGeometry>
        </mxCell>
        <mxCell id="LMWDhoOacNp9xWeNuHlK-93" value="Course" style="html=1;" vertex="1" parent="1">
          <mxGeometry x="60" y="220" width="110" height="50" as="geometry" />
        </mxCell>
      </root>
    </mxGraphModel>
  </diagram>
</mxfile>
